<?xml version="1.0" encoding="UTF-8"?><svg id="a" xmlns="http://www.w3.org/2000/svg" width="1737.08" height="448.24" viewBox="0 0 1737.08 448.24"><defs><style>.b{fill:none;}.c{fill:#030304;}.d{fill:#fff;}.e{fill:#3cae5f;}</style></defs><circle class="d" cx="224.23" cy="225.67" r="180.45"/><g><path class="e" d="M224.12,448.24c-59.87,0-116.15-23.31-158.48-65.64C23.31,340.27,0,283.99,0,224.12S23.31,107.98,65.64,65.64,164.26,0,224.12,0s116.15,23.31,158.48,65.64,65.64,98.61,65.64,158.48-23.31,116.15-65.64,158.48c-42.33,42.33-98.61,65.64-158.48,65.64Zm0-436.48C107.03,11.76,11.76,107.03,11.76,224.12s95.26,212.36,212.36,212.36,212.36-95.26,212.36-212.36S341.22,11.76,224.12,11.76Z"/><path class="b" d="M213.14,130.7c-.85-1.64-2.55-2.66-4.39-2.66h-25.44c-3.72,0-6.12,3.96-4.39,7.26l25.86,50.92c5.33-7.68,12.53-18.31,20.75-31.13l-12.39-24.39Z"/><path class="b" d="M185.66,300.86c.39-1.01,.79-2.03,1.2-3.08-.41,1.05-.81,2.07-1.2,3.08h0Z"/><path class="b" d="M244.9,193.22c-.56,1-1.12,2-1.68,2.99-5.23,9.32-10.16,18.12-14.72,26.65-.88,1.66-1.75,3.29-2.61,4.92l25.37,49.95h-49.62c-3.74,8.48-6.95,16.21-9.67,23.13h71.03l18.91,37.24c.85,1.64,2.55,2.66,4.39,2.66h25.46c3.72,0,6.12-3.96,4.39-7.26l-71.25-140.28Z"/><path class="e" d="M178.81,319.94c-.56,1.73-1.07,3.35-1.53,4.86,.46-1.51,.97-3.13,1.53-4.86Z"/><path class="e" d="M288.06,65.33c-.19-.1-.39-.19-.59-.25h0c.2,.06,.39,.15,.59,.25Z"/><path class="e" d="M282.8,66.5c-.17,.22-.33,.46-.47,.74-1.15,2.34-2.32,4.67-3.5,7.01,1.18-2.34,2.35-4.67,3.5-7.01,.14-.28,.3-.52,.47-.74Z"/><path class="e" d="M286.27,64.92c-.18,0-.37,.01-.57,.03,.21-.02,.41-.03,.61-.03-.01,0-.03,0-.04,0Z"/><path class="e" d="M173.88,338.33c.19-.54,.35-1.19,.48-1.99,.1-.64,.24-1.38,.43-2.23-.18,.85-.33,1.59-.43,2.23-.13,.8-.29,1.45-.48,1.99Z"/><path class="e" d="M142.35,340.75h27.22c.95,0,1.77-.01,2.45-.27-.68,.25-1.5,.28-2.45,.28h-27.22Z"/><path class="e" d="M184.87,302.91c.26-.67,.52-1.36,.79-2.05h0c-.27,.69-.53,1.37-.79,2.05Z"/><path class="e" d="M289.26,66.3c-.24-.27-.5-.51-.78-.7,.28,.2,.54,.43,.78,.7Z"/><path class="e" d="M224.12,27.14C115.33,27.14,27.14,115.33,27.14,224.12s88.19,196.98,196.98,196.98,196.98-88.19,196.98-196.98S332.91,27.14,224.12,27.14Zm-40.81,100.9h25.44c1.84,0,3.54,1.02,4.39,2.66l12.39,24.39c-8.22,12.82-15.42,23.45-20.75,31.13l-25.86-50.92c-1.73-3.3,.67-7.26,4.39-7.26Zm3.54,169.74c-.41,1.05-.81,2.07-1.2,3.08-.27,.69-.53,1.37-.79,2.05-.26,.67-.51,1.34-.76,2-.43,1.14-.84,2.25-1.24,3.33-.79,2.17-1.53,4.23-2.21,6.18-.68,1.95-1.3,3.8-1.86,5.53s-1.07,3.35-1.53,4.86c-.46,1.51-.86,2.9-1.21,4.18-.22,.8-.42,1.55-.6,2.26-.18,.71-.34,1.37-.48,1.98-.07,.31-.14,.6-.2,.89-.18,.85-.33,1.59-.43,2.23-.13,.8-.29,1.45-.48,1.99-.06,.18-.13,.34-.2,.5-.14,.31-.3,.57-.47,.78-.17,.22-.35,.39-.55,.54s-.41,.25-.64,.34c-.68,.25-1.5,.28-2.45,.28h-27.22c-3.58-.11-4.4-.81-4.36-3.26,0-.17,0-.36,.02-.55s.02-.4,.04-.61c.27-3.36,.78-6.89,1.52-10.55,.44-2.19,.96-4.44,1.55-6.72,1.03-3.99,2.28-8.11,3.71-12.3,.48-1.4,.97-2.81,1.49-4.22,.29-.81,.59-1.62,.9-2.43,4.59-12.2,10.49-24.88,16.83-37.1,1.27-2.45,2.55-4.87,3.85-7.27,.43-.8,.87-1.6,1.3-2.39,1.74-3.18,3.49-6.3,5.24-9.36,.44-.76,.87-1.52,1.31-2.28,2.18-3.78,4.36-7.44,6.49-10.96,.85-1.41,1.7-2.79,2.54-4.15,1.26-2.03,2.49-4.01,3.7-5.92,1.21-1.91,2.39-3.75,3.54-5.52,3.45-5.31,6.59-9.95,9.24-13.73,.59-.84,1.15-1.64,1.69-2.39,1.59-2.21,3.21-4.51,4.87-6.88,4.42-6.3,9.08-13.13,13.89-20.4,1.66-2.5,3.33-5.05,5.02-7.65,.63-.97,1.27-1.96,1.91-2.95,.21-.33,.42-.65,.63-.98,2.55-3.96,5.13-8.03,7.72-12.17,1.73-2.77,3.46-5.57,5.2-8.41,.87-1.42,1.74-2.85,2.61-4.28,2.09-3.46,4.19-6.97,6.28-10.51,1.88-3.18,3.74-6.39,5.61-9.63,.74-1.28,1.47-2.57,2.2-3.86,1.34-2.36,2.68-4.73,4.01-7.11,.85-1.52,1.69-3.04,2.53-4.57,2.07-3.77,4.12-7.57,6.14-11.37,1.67-3.15,3.33-6.31,4.96-9.48,.78-1.52,1.55-3.04,2.32-4.56,1.18-2.34,2.35-4.67,3.5-7.01,.14-.28,.3-.52,.47-.74,.05-.06,.1-.12,.16-.18,.14-.15,.28-.29,.43-.42,.05-.04,.1-.09,.16-.13,.2-.15,.41-.28,.62-.38,.03-.02,.07-.03,.1-.04,.19-.09,.38-.16,.57-.21,.07-.02,.13-.04,.2-.05,.17-.04,.34-.08,.51-.1,.05,0,.1-.02,.15-.02,.19-.02,.39-.03,.57-.03,.01,0,.03,0,.04,0,.16,0,.3,.02,.44,.03,.07,0,.14,0,.2,.02,.19,.03,.37,.07,.52,.11h0c.2,.06,.39,.15,.59,.25,.14,.08,.29,.17,.43,.26,.28,.2,.54,.43,.78,.7,.12,.13,.23,.28,.33,.43,.27,.4,.49,.85,.62,1.32,.06,.24,.11,.48,.12,.73,.02,.25,0,.51-.03,.76-.34,2.39-.74,4.78-1.2,7.18s-.98,4.81-1.55,7.22c-1.53,6.44-3.45,12.92-5.67,19.41-1.11,3.25-2.3,6.5-3.56,9.75-1.26,3.25-2.58,6.5-3.96,9.75s-2.82,6.49-4.31,9.73c-5.95,12.95-12.65,25.79-19.48,38.31-1.71,3.13-3.42,6.24-5.14,9.32-1.25,2.25-2.49,4.48-3.74,6.7-6.43,11.5-12.74,22.62-18.38,33.18-.23,.43-.45,.85-.68,1.28-1.86,3.49-3.67,6.93-5.4,10.3-1.95,3.78-3.82,7.47-5.62,11.07-2.7,5.41-5.23,10.62-7.6,15.64-.79,1.67-1.56,3.32-2.32,4.94-2.26,4.88-4.37,9.55-6.32,14-.06,.14-.12,.27-.18,.41-1.23,2.82-2.41,5.57-3.53,8.22-1.75,4.17-3.36,8.11-4.82,11.83Zm124.91,42.98h-25.46c-1.84,0-3.54-1.03-4.39-2.66l-18.91-37.24h-71.03c2.72-6.92,5.93-14.65,9.67-23.13h49.62l-25.37-49.95c.86-1.63,1.72-3.26,2.61-4.92,4.56-8.53,9.49-17.33,14.72-26.65,.56-.99,1.12-1.99,1.68-2.99l71.25,140.28c1.73,3.3-.67,7.26-4.39,7.26Z"/><path class="e" d="M177.28,324.8c-.46,1.51-.86,2.9-1.21,4.18,.35-1.28,.75-2.67,1.21-4.18Z"/><path class="e" d="M172.66,340.15c.2-.14,.38-.32,.55-.54-.17,.22-.35,.39-.55,.54Z"/><path class="e" d="M176.07,328.98c-.22,.8-.42,1.55-.6,2.26,.18-.71,.38-1.46,.6-2.26Z"/><path class="e" d="M175.47,331.24c-.18,.71-.34,1.37-.48,1.98,.14-.61,.3-1.27,.48-1.98Z"/><path class="e" d="M244.78,135.34c2.09-3.46,4.19-6.97,6.28-10.51-2.09,3.54-4.18,7.05-6.28,10.51Z"/><path class="e" d="M141.11,319.08c1.03-3.99,2.28-8.11,3.71-12.3-1.43,4.2-2.68,8.31-3.71,12.3Z"/><path class="e" d="M281.88,103.36c-1.11,3.25-2.3,6.5-3.56,9.75,1.26-3.25,2.45-6.5,3.56-9.75Z"/><path class="e" d="M139.56,325.8c-.73,3.66-1.25,7.18-1.52,10.55-.02,.21-.03,.41-.04,.61,.01-.19,.02-.39,.04-.61,.27-3.36,.78-6.89,1.52-10.55Z"/><path class="e" d="M289.1,76.72c.46-2.4,.86-4.8,1.2-7.18,.04-.26,.04-.51,.03-.76,.02,.25,0,.51-.03,.76-.34,2.39-.74,4.78-1.2,7.18Z"/><path class="e" d="M274.36,122.86c-1.38,3.25-2.82,6.49-4.31,9.73,1.49-3.24,2.93-6.48,4.31-9.73Z"/><g><path class="c" d="M614.77,187.16c-11.73,0-21.84-2.59-30.32-7.77-8.49-5.18-15.06-12.41-19.73-21.69-4.67-9.28-7-20.07-7-32.37s2.33-22.92,7-32.2c4.67-9.28,11.24-16.54,19.73-21.78,8.48-5.24,18.59-7.86,30.32-7.86,13.67,0,24.8,3.28,33.39,9.82,8.6,6.55,14.09,15.69,16.48,27.42h-15.89c-1.82-7.4-5.55-13.35-11.19-17.85-5.64-4.5-13.24-6.75-22.8-6.75-8.54,0-16,1.96-22.38,5.89-6.38,3.93-11.3,9.57-14.78,16.91-3.48,7.35-5.21,16.14-5.21,26.39s1.73,19.05,5.21,26.39c3.47,7.35,8.4,12.98,14.78,16.91,6.38,3.93,13.84,5.89,22.38,5.89,9.57,0,17.17-2.19,22.8-6.58,5.64-4.38,9.37-10.22,11.19-17.51h15.89c-2.39,11.5-7.89,20.5-16.48,26.99-8.6,6.49-19.73,9.74-33.39,9.74Z"/><path class="c" d="M686.68,185.11V62.12h14.35v122.99h-14.35Z"/><path class="c" d="M735.53,81.6c-2.85,0-5.21-.94-7.09-2.82-1.88-1.88-2.82-4.24-2.82-7.09s.94-5.01,2.82-6.83c1.88-1.82,4.24-2.73,7.09-2.73s5.07,.91,7,2.73c1.94,1.82,2.9,4.1,2.9,6.83s-.97,5.21-2.9,7.09c-1.94,1.88-4.27,2.82-7,2.82Zm-7.17,103.52V100.39h14.35v84.72h-14.35Z"/><path class="c" d="M769.86,185.11V100.39h12.98l1.02,12.3c2.73-4.55,6.38-8.08,10.93-10.59,4.55-2.5,9.68-3.76,15.37-3.76,6.72,0,12.5,1.37,17.34,4.1,4.84,2.73,8.57,6.89,11.19,12.47,2.96-5.12,7.03-9.17,12.21-12.13,5.18-2.96,10.79-4.44,16.83-4.44,10.13,0,18.22,3.05,24.26,9.14,6.03,6.09,9.05,15.46,9.05,28.1v49.54h-14.18v-48c0-8.77-1.77-15.37-5.3-19.81-3.53-4.44-8.6-6.66-15.2-6.66s-12.5,2.65-17,7.94c-4.5,5.3-6.75,12.84-6.75,22.63v43.9h-14.35v-48c0-8.77-1.77-15.37-5.3-19.81-3.53-4.44-8.6-6.66-15.2-6.66s-12.33,2.65-16.83,7.94c-4.5,5.3-6.75,12.84-6.75,22.63v43.9h-14.35Z"/><path class="c" d="M953.15,187.16c-7.06,0-12.93-1.2-17.59-3.59-4.67-2.39-8.14-5.58-10.42-9.57-2.28-3.99-3.42-8.31-3.42-12.98,0-8.65,3.3-15.31,9.91-19.99,6.6-4.67,15.6-7,26.99-7h22.89v-1.02c0-7.4-1.94-13.01-5.81-16.83-3.87-3.81-9.05-5.72-15.54-5.72-5.58,0-10.39,1.4-14.43,4.19-4.05,2.79-6.58,6.86-7.6,12.21h-14.69c.57-6.15,2.65-11.33,6.23-15.54,3.59-4.21,8.05-7.43,13.41-9.65,5.35-2.22,11.05-3.33,17.08-3.33,11.84,0,20.75,3.16,26.73,9.48,5.98,6.32,8.97,14.72,8.97,25.2v52.1h-12.81l-.85-15.2c-2.39,4.78-5.89,8.86-10.51,12.21-4.61,3.36-10.79,5.04-18.53,5.04Zm2.22-12.13c5.47,0,10.16-1.42,14.09-4.27,3.93-2.85,6.92-6.55,8.97-11.1,2.05-4.55,3.07-9.34,3.07-14.35v-.17h-21.69c-8.43,0-14.38,1.45-17.85,4.36-3.48,2.9-5.21,6.52-5.21,10.85s1.62,8,4.87,10.68c3.24,2.68,7.83,4.01,13.75,4.01Z"/><path class="c" d="M1050.69,185.11c-7.75,0-13.84-1.88-18.28-5.64-4.44-3.76-6.66-10.53-6.66-20.33v-46.63h-14.69v-12.13h14.69l1.88-20.33h12.47v20.33h24.94v12.13h-24.94v46.63c0,5.35,1.08,8.97,3.24,10.85,2.16,1.88,5.98,2.82,11.44,2.82h8.88v12.3h-12.98Z"/><path class="c" d="M1121.23,187.16c-8.09,0-15.26-1.85-21.52-5.55-6.26-3.7-11.19-8.85-14.77-15.46-3.59-6.6-5.38-14.4-5.38-23.4s1.77-16.66,5.3-23.32c3.53-6.66,8.45-11.84,14.78-15.54,6.32-3.7,13.63-5.55,21.95-5.55s15.29,1.85,21.27,5.55c5.98,3.7,10.56,8.57,13.75,14.6,3.19,6.04,4.78,12.53,4.78,19.47,0,1.26-.03,2.51-.09,3.76-.06,1.26-.08,2.68-.08,4.27h-67.47c.34,6.49,1.85,11.87,4.53,16.14,2.67,4.27,6.04,7.49,10.08,9.65,4.04,2.16,8.34,3.25,12.9,3.25,5.92,0,10.87-1.37,14.86-4.1,3.98-2.73,6.89-6.43,8.71-11.1h14.18c-2.28,7.86-6.64,14.38-13.07,19.56-6.44,5.18-14.66,7.77-24.68,7.77Zm0-76.7c-6.83,0-12.9,2.08-18.19,6.24-5.29,4.16-8.34,10.22-9.14,18.19h53.3c-.34-7.63-2.96-13.61-7.86-17.94-4.9-4.33-10.93-6.49-18.1-6.49Z"/><path class="c" d="M1223.38,185.11l44.07-119.57h15.21l43.9,119.57h-15.2l-10.93-30.75h-50.9l-11.1,30.75h-15.03Zm30.4-42.36h42.36l-21.18-59.1-21.18,59.1Z"/><path class="c" d="M1380.02,187.16c-8.09,0-15.35-1.85-21.78-5.55-6.43-3.7-11.5-8.88-15.2-15.54-3.7-6.66-5.55-14.43-5.55-23.32s1.85-16.66,5.55-23.32c3.7-6.66,8.77-11.84,15.2-15.54,6.43-3.7,13.69-5.55,21.78-5.55,10.02,0,18.47,2.62,25.37,7.86,6.89,5.24,11.24,12.24,13.07,21.01h-14.69c-1.14-5.24-3.93-9.31-8.37-12.21-4.44-2.9-9.63-4.36-15.55-4.36-4.78,0-9.28,1.2-13.49,3.59-4.21,2.39-7.63,5.98-10.25,10.76-2.62,4.78-3.93,10.71-3.93,17.77s1.31,12.98,3.93,17.76c2.62,4.78,6.04,8.4,10.25,10.85,4.21,2.45,8.71,3.67,13.49,3.67,5.92,0,11.1-1.45,15.55-4.36,4.44-2.9,7.23-7.03,8.37-12.38h14.69c-1.71,8.54-6.04,15.49-12.98,20.84-6.95,5.35-15.43,8.03-25.45,8.03Z"/><path class="c" d="M1471.75,185.11c-7.75,0-13.83-1.88-18.28-5.64-4.44-3.76-6.66-10.53-6.66-20.33v-46.63h-14.69v-12.13h14.69l1.88-20.33h12.47v20.33h24.94v12.13h-24.94v46.63c0,5.35,1.08,8.97,3.24,10.85,2.16,1.88,5.98,2.82,11.45,2.82h8.88v12.3h-12.98Z"/><path class="c" d="M1515.31,81.6c-2.85,0-5.21-.94-7.09-2.82-1.88-1.88-2.82-4.24-2.82-7.09s.94-5.01,2.82-6.83c1.88-1.82,4.24-2.73,7.09-2.73s5.07,.91,7,2.73c1.94,1.82,2.9,4.1,2.9,6.83s-.97,5.21-2.9,7.09c-1.94,1.88-4.27,2.82-7,2.82Zm-7.18,103.52V100.39h14.35v84.72h-14.35Z"/><path class="c" d="M1588.24,187.16c-7.97,0-15.15-1.82-21.52-5.47-6.38-3.64-11.42-8.8-15.12-15.46-3.7-6.66-5.55-14.49-5.55-23.49s1.88-16.83,5.64-23.49c3.76-6.66,8.85-11.81,15.29-15.46,6.43-3.64,13.63-5.47,21.61-5.47s15.14,1.82,21.52,5.47c6.38,3.65,11.42,8.8,15.12,15.46,3.7,6.66,5.55,14.49,5.55,23.49s-1.88,16.82-5.64,23.49c-3.76,6.66-8.86,11.82-15.29,15.46-6.43,3.64-13.64,5.47-21.61,5.47Zm0-12.3c4.9,0,9.45-1.2,13.66-3.59,4.21-2.39,7.63-5.98,10.25-10.76,2.62-4.78,3.93-10.7,3.93-17.76s-1.28-12.98-3.85-17.77c-2.56-4.78-5.95-8.37-10.16-10.76-4.21-2.39-8.71-3.59-13.5-3.59s-9.45,1.2-13.66,3.59c-4.21,2.39-7.63,5.98-10.25,10.76-2.62,4.78-3.93,10.71-3.93,17.77s1.31,12.98,3.93,17.76c2.62,4.78,6.01,8.37,10.16,10.76,4.16,2.39,8.63,3.59,13.41,3.59Z"/><path class="c" d="M1652.98,185.11V100.39h12.98l.85,15.2c2.73-5.35,6.66-9.57,11.79-12.64,5.12-3.07,10.93-4.61,17.42-4.61,10.02,0,18.02,3.05,24,9.14,5.98,6.09,8.97,15.46,8.97,28.1v49.54h-14.35v-48c0-17.65-7.29-26.48-21.86-26.48-7.29,0-13.35,2.65-18.19,7.94-4.84,5.3-7.26,12.84-7.26,22.63v43.9h-14.35Z"/></g><g><path class="c" d="M548.55,383.73l51.02-139.5h28.7l51.02,139.5h-27.1l-11.16-32.28h-54.41l-11.36,32.28h-26.71Zm45.04-52.21h40.46l-20.33-57.99-20.13,57.99Z"/><path class="c" d="M746.44,386.12c-10.1,0-19-2.19-26.7-6.58-7.71-4.38-13.79-10.49-18.24-18.34-4.45-7.84-6.68-16.8-6.68-26.9s2.22-19.06,6.68-26.9c4.45-7.84,10.53-13.95,18.24-18.34,7.7-4.38,16.61-6.58,26.7-6.58,12.62,0,23.25,3.29,31.89,9.86,8.64,6.58,14.15,15.64,16.54,27.2h-26.9c-1.33-4.78-3.95-8.54-7.87-11.26-3.92-2.72-8.54-4.08-13.85-4.08-7.04,0-13.02,2.66-17.94,7.97-4.92,5.32-7.37,12.69-7.37,22.12s2.46,16.81,7.37,22.12c4.91,5.32,10.89,7.97,17.94,7.97,5.31,0,9.93-1.33,13.85-3.98,3.92-2.66,6.54-6.44,7.87-11.36h26.9c-2.39,11.16-7.91,20.13-16.54,26.9-8.64,6.78-19.26,10.16-31.89,10.16Z"/><path class="c" d="M871.99,386.12c-10.1,0-19-2.19-26.7-6.58-7.71-4.38-13.79-10.49-18.24-18.34-4.45-7.84-6.68-16.8-6.68-26.9s2.22-19.06,6.68-26.9c4.45-7.84,10.53-13.95,18.24-18.34,7.7-4.38,16.61-6.58,26.7-6.58,12.62,0,23.25,3.29,31.89,9.86,8.64,6.58,14.15,15.64,16.54,27.2h-26.9c-1.33-4.78-3.95-8.54-7.87-11.26-3.92-2.72-8.54-4.08-13.85-4.08-7.04,0-13.02,2.66-17.94,7.97-4.92,5.32-7.37,12.69-7.37,22.12s2.46,16.81,7.37,22.12c4.91,5.32,10.89,7.97,17.94,7.97,5.31,0,9.93-1.33,13.85-3.98,3.92-2.66,6.54-6.44,7.87-11.36h26.9c-2.39,11.16-7.91,20.13-16.54,26.9-8.64,6.78-19.26,10.16-31.89,10.16Z"/><path class="c" d="M997.14,386.12c-9.96,0-18.8-2.13-26.51-6.38-7.71-4.25-13.75-10.23-18.13-17.94-4.38-7.7-6.58-16.61-6.58-26.7s2.16-19.33,6.48-27.3c4.31-7.97,10.29-14.18,17.94-18.63,7.64-4.45,16.64-6.68,27-6.68,9.69,0,18.26,2.13,25.71,6.38,7.44,4.25,13.25,10.06,17.44,17.44,4.19,7.37,6.28,15.58,6.28,24.61,0,1.46-.03,2.99-.1,4.58-.07,1.59-.17,3.26-.3,4.98h-75.13c.53,7.71,3.22,13.75,8.07,18.14,4.85,4.38,10.73,6.58,17.64,6.58,5.18,0,9.53-1.16,13.05-3.49,3.52-2.32,6.14-5.35,7.87-9.07h25.91c-1.86,6.25-4.95,11.93-9.27,17.04-4.32,5.12-9.63,9.14-15.94,12.06-6.31,2.92-13.45,4.38-21.42,4.38Zm.2-82.9c-6.25,0-11.76,1.76-16.54,5.28-4.78,3.52-7.84,8.87-9.17,16.04h49.22c-.4-6.51-2.79-11.69-7.18-15.54-4.38-3.85-9.83-5.78-16.34-5.78Z"/><path class="c" d="M1074.26,383.73V240.24h25.51v143.49h-25.51Z"/><path class="c" d="M1179.88,386.12c-9.96,0-18.8-2.13-26.51-6.38-7.71-4.25-13.75-10.23-18.13-17.94-4.38-7.7-6.58-16.61-6.58-26.7s2.16-19.33,6.48-27.3c4.31-7.97,10.29-14.18,17.94-18.63,7.64-4.45,16.64-6.68,27-6.68,9.69,0,18.26,2.13,25.71,6.38,7.44,4.25,13.25,10.06,17.44,17.44,4.19,7.37,6.28,15.58,6.28,24.61,0,1.46-.03,2.99-.1,4.58-.07,1.59-.17,3.26-.3,4.98h-75.13c.53,7.71,3.22,13.75,8.07,18.14,4.85,4.38,10.73,6.58,17.64,6.58,5.18,0,9.53-1.16,13.05-3.49,3.52-2.32,6.14-5.35,7.87-9.07h25.91c-1.86,6.25-4.95,11.93-9.27,17.04-4.32,5.12-9.63,9.14-15.94,12.06-6.31,2.92-13.45,4.38-21.42,4.38Zm.2-82.9c-6.25,0-11.76,1.76-16.54,5.28-4.78,3.52-7.84,8.87-9.17,16.04h49.22c-.4-6.51-2.79-11.69-7.18-15.54-4.38-3.85-9.83-5.78-16.34-5.78Z"/><path class="c" d="M1257,383.73v-98.85h22.72l2.39,18.53c3.59-6.38,8.47-11.46,14.65-15.24s13.45-5.68,21.82-5.68v26.9h-7.18c-5.58,0-10.56,.86-14.95,2.59-4.38,1.73-7.81,4.72-10.26,8.97-2.46,4.25-3.69,10.16-3.69,17.74v45.04h-25.51Z"/><path class="c" d="M1375.98,386.12c-8.5,0-15.48-1.36-20.92-4.08-5.45-2.72-9.5-6.34-12.16-10.86-2.66-4.52-3.98-9.5-3.98-14.95,0-9.17,3.59-16.61,10.76-22.32,7.18-5.71,17.94-8.57,32.29-8.57h25.11v-2.39c0-6.78-1.93-11.76-5.78-14.95-3.86-3.19-8.64-4.78-14.35-4.78-5.18,0-9.7,1.23-13.55,3.69-3.85,2.46-6.24,6.08-7.17,10.86h-24.91c.66-7.17,3.09-13.42,7.27-18.73,4.19-5.31,9.6-9.4,16.24-12.26,6.64-2.86,14.08-4.28,22.32-4.28,14.08,0,25.18,3.52,33.28,10.56,8.1,7.04,12.16,17.01,12.16,29.89v60.78h-21.72l-2.39-15.94c-2.92,5.32-7.01,9.7-12.26,13.15-5.25,3.45-11.99,5.18-20.23,5.18Zm5.78-19.93c7.3,0,12.98-2.39,17.04-7.17,4.05-4.78,6.61-10.69,7.67-17.74h-21.72c-6.78,0-11.63,1.23-14.55,3.69-2.92,2.46-4.38,5.48-4.38,9.07,0,3.85,1.46,6.84,4.38,8.97,2.92,2.12,6.78,3.19,11.56,3.19Z"/><path class="c" d="M1505.52,383.73c-10.36,0-18.67-2.52-24.91-7.57-6.25-5.05-9.37-14.02-9.37-26.9v-43.05h-16.94v-21.32h16.94l2.99-26.5h22.52v26.5h26.7v21.32h-26.7v43.24c0,4.78,1.03,8.07,3.09,9.86,2.06,1.8,5.61,2.69,10.66,2.69h12.36v21.72h-17.34Z"/><path class="c" d="M1596.19,386.12c-9.56,0-18.17-2.19-25.81-6.58-7.64-4.38-13.69-10.46-18.14-18.24-4.45-7.77-6.68-16.77-6.68-27s2.26-19.23,6.78-27c4.52-7.77,10.59-13.85,18.23-18.24,7.64-4.38,16.24-6.58,25.81-6.58s17.97,2.19,25.61,6.58c7.64,4.38,13.68,10.46,18.14,18.24,4.45,7.77,6.68,16.77,6.68,27s-2.23,19.23-6.68,27c-4.45,7.77-10.53,13.85-18.24,18.24-7.71,4.38-16.28,6.58-25.71,6.58Zm0-22.12c6.64,0,12.42-2.49,17.34-7.47,4.92-4.98,7.38-12.39,7.38-22.22s-2.46-17.24-7.38-22.22c-4.92-4.98-10.63-7.47-17.14-7.47s-12.59,2.49-17.44,7.47c-4.85,4.98-7.27,12.39-7.27,22.22s2.42,17.24,7.27,22.22c4.85,4.98,10.59,7.47,17.24,7.47Z"/><path class="c" d="M1675.5,383.73v-98.85h22.72l2.39,18.53c3.59-6.38,8.47-11.46,14.65-15.24,6.18-3.79,13.45-5.68,21.82-5.68v26.9h-7.17c-5.58,0-10.56,.86-14.95,2.59-4.38,1.73-7.81,4.72-10.26,8.97-2.46,4.25-3.69,10.16-3.69,17.74v45.04h-25.51Z"/></g></g></svg>